<svg xmlns="http://www.w3.org/2000/svg" width="95.1" height="87.376" viewBox="0 0 95.1 87.376">
  <g id="Groupe_11206" data-name="Groupe 11206" transform="translate(-192.209 -327.23)">
    <path id="Tracé_37878" data-name="Tracé 37878" d="M256.7,334.979c-9.775,17.56-15.793,36.571-21.689,55.834.595.043,1.032.094,1.471.1a3.2,3.2,0,0,1,3.312,3.227c.039,1.15.029,2.3.008,3.453-.014.771.325,1.082,1.1,1.134,3.041.206,3.953,1.209,3.959,4.276,0,2.494.018,4.988,0,7.482-.025,2.781-1.425,4.123-4.212,4.117-4.374-.009-8.748.011-13.122-.01-2.277-.011-3.817-1.116-3.882-3.574-.077-2.914-.085-5.833,0-8.746a3.285,3.285,0,0,1,3.632-3.536c1.009,0,1.378-.41,1.34-1.38-.04-1-.02-1.994,0-2.991a3.384,3.384,0,0,1,2.879-3.492,1.56,1.56,0,0,0,.98-.839c.787-2.4,1.6-4.8,2.157-7.265a8.612,8.612,0,0,0-.426-3,46.405,46.405,0,0,1-.2-9.188l.822.935.312-.017a38.115,38.115,0,0,1,2.764-16.74l.337-.065,1.129,3.519.3-.007c.041-.415.109-.83.119-1.246a35.361,35.361,0,0,1,2.05-11.6,31.938,31.938,0,0,1,4.933-8.122,29.53,29.53,0,0,1,8.635-8.159,24.424,24.424,0,0,1,3.875-1.685c1.123-.4,1.621-.084,1.964,1.078a21.53,21.53,0,0,1,.749,8.651c-.226,1.927-.705,3.824-1.062,5.736a.927.927,0,0,0,.227.716L263,341.233l.433.24a4.857,4.857,0,0,1-.01,1.029,46.322,46.322,0,0,1-4.419,11.666,32.937,32.937,0,0,0-2.14,4.714l2.84-1.1c-2.186,5.923-7.315,8.129-12.126,10.7l.063.32c.816-.1,1.635-.166,2.446-.3.831-.132,1.658-.3,2.476-.494s1.643-.45,2.727-.751a11.866,11.866,0,0,1-2.749,4.994c-1.207,1.308-2.584,2.461-4.006,3.793l1.818.258c-1.618,1.747-3.667,2.4-5.738,3.346l1.2.484.106.369-3.427,1.4c-.127,1.208-1.227,1.868-3.029,1.506,2.506-8.227,5.106-16.4,8.1-24.446C250.547,350.942,253.65,342.97,256.7,334.979Z" transform="translate(-16.923 0)" fill="#fff"/>
    <path id="Tracé_37879" data-name="Tracé 37879" d="M281.2,405.947a20.262,20.262,0,0,0,2.986-2.382,20.809,20.809,0,0,0,1.887-3.2,10.263,10.263,0,0,1,.769-1.248,17.343,17.343,0,0,0,3.735-7.155c.016-.075.071-.152.059-.221-.34-1.987,1.206-3.055,2.124-4.444,1.177-1.782,2.442-3.549,2.385-5.844,0-.153.048-.336-.017-.456-1.118-2.074.347-3.713.933-5.489.3-.907.834-1.749,1.045-2.67.272-1.184.936-1.23,1.86-.933,2.368.759,4.733,1.533,7.107,2.273,4.231,1.32,8.469,2.613,12.7,3.93q7.177,2.233,14.348,4.486a4.529,4.529,0,0,0,.767.235,1.364,1.364,0,0,1,1.376,1.411c.014.941.356,1.927-.913,2.545-5.159,2.513-10.276,5.113-15.4,7.688-8.858,4.448-17.728,8.87-26.554,13.38a5.028,5.028,0,0,1-4.737.42,55.185,55.185,0,0,0-5.347-1.716A6.975,6.975,0,0,1,281.2,405.947Z" transform="translate(-48.01 -24.02)" fill="#fff"/>
    <path id="Tracé_37880" data-name="Tracé 37880" d="M215.119,395.138c-.069.616-.1.981-.152,1.343q-.522,3.464-1.052,6.926a1.327,1.327,0,0,1-.075.451c-1.351,2.329-1.034,4.9-1.063,7.415-.011.9-.259,1.169-1.16.877-4.074-1.315-8.162-2.586-12.242-3.885-1.633-.519-2.427-.357-3.055,1.24a14.961,14.961,0,0,0-1.248,5.178,28.623,28.623,0,0,0,.968,6.294c.383,1.729,1.821,2.407,3.391,2.886,2.783.851,5.539,1.79,8.326,2.626.776.233.916.576.588,1.239-.1.206-.213.408-.3.622-.7,1.768-.713,1.831-2.518,1.322-2.5-.706-5.008-1.43-7.454-2.305-3.189-1.141-4.559-3.8-5.283-6.876a21.866,21.866,0,0,1-.032-9.909,9.793,9.793,0,0,1,5.531-7.161c5.067-2.442,10.056-5.045,15.083-7.57C213.867,395.6,214.4,395.43,215.119,395.138Z" transform="translate(0 -36.636)" fill="#fff"/>
    <path id="Tracé_37881" data-name="Tracé 37881" d="M332.017,437.829c.758,1.252.39,3.179-.611,3.706q-5.877,3.092-11.775,6.146c-4.547,2.34-9.111,4.647-13.67,6.965-5.866,2.983-11.716,6-17.623,8.9a4.076,4.076,0,0,1-2.656.1c-2.575-.718-5.091-1.643-7.647-2.434a1.54,1.54,0,0,1-1.166-1.23,24,24,0,0,0-.975-2.431c-.046-.119.023-.285.048-.525,1.767.556,3.469,1.077,5.16,1.628,1.819.593,3.618,1.246,5.449,1.8a1.956,1.956,0,0,0,1.292-.19q6.32-3.144,12.61-6.349c3.272-1.659,6.52-3.366,9.809-4.991,5.847-2.887,11.729-5.7,17.569-8.605C329.257,439.606,330.58,438.689,332.017,437.829Z" transform="translate(-45.139 -59.667)" fill="#fff"/>
    <path id="Tracé_37882" data-name="Tracé 37882" d="M262.366,438.59a3.106,3.106,0,0,1,2.937-.644c3.15.936,6.276,1.955,9.414,2.933,1.5.467,2.989.962,4.508,1.345a2.409,2.409,0,0,0,1.54-.157c7.351-3.687,14.68-7.418,22.021-11.126q9.579-4.839,19.17-9.655c.1-.052.218-.154.31-.137.47.087.934.2,1.4.311-.222.386-.349.937-.682,1.129-1.29.744-2.647,1.375-3.979,2.047q-8.708,4.395-17.416,8.788-8.146,4.1-16.3,8.19a32.571,32.571,0,0,0-3.369,1.722,3.87,3.87,0,0,1-3.641.392c-5.24-1.691-10.51-3.287-15.768-4.921C262.486,438.8,262.472,438.749,262.366,438.59Z" transform="translate(-37.849 -50.668)" fill="#fff"/>
    <path id="Tracé_37883" data-name="Tracé 37883" d="M266.961,446.833c1.665.508,3.151.956,4.634,1.414,3.291,1.019,6.57,2.084,9.882,3.03a3.11,3.11,0,0,0,2.047-.213c4.973-2.46,9.906-5,14.857-7.5q13.052-6.6,26.112-13.186c.626-.316,1.341-.72,1.65.3.078.257-.312.846-.627,1.005-8.772,4.455-17.569,8.859-26.346,13.3-4.882,2.472-9.726,5.019-14.608,7.49a4.371,4.371,0,0,1-3.7.434c-4.111-1.437-8.308-2.63-12.472-3.913C267.472,448.707,267.008,448.1,266.961,446.833Z" transform="translate(-40.328 -55.455)" fill="#fff"/>
    <path id="Tracé_37884" data-name="Tracé 37884" d="M273.442,430.333a2.605,2.605,0,0,1,2.94-.58c2.778.979,5.6,1.857,8.431,2.655a3.332,3.332,0,0,0,2.187-.2c6.857-3.4,13.683-6.858,20.511-10.314q7.43-3.761,14.845-7.551c1.912-.973,3.844-1.906,5.724-2.938.66-.362,1.229-.458,1.5.245.107.274-.307.985-.657,1.171-3.111,1.646-6.259,3.223-9.4,4.812q-5.525,2.794-11.057,5.576c-7.1,3.593-14.2,7.173-21.278,10.808a3.674,3.674,0,0,1-2.986-.046c-3.294-1-6.573-2.045-9.853-3.091A5.019,5.019,0,0,1,273.442,430.333Z" transform="translate(-43.825 -45.26)" fill="#fff"/>
    <path id="Tracé_37885" data-name="Tracé 37885" d="M221.112,444.74c-1.088-.3-2.086-.556-3.068-.857q-5.7-1.749-11.392-3.523a.776.776,0,0,1-.112-.024c-.607-.3-1.7-.283-1.456-1.258.285-1.13,1.189-.54,1.894-.325q6.3,1.922,12.6,3.835C220.619,442.9,220.9,443.266,221.112,444.74Z" transform="translate(-6.927 -59.978)" fill="#fff"/>
    <path id="Tracé_37886" data-name="Tracé 37886" d="M219.578,435.118c-1.308-.391-2.573-.756-3.83-1.147q-4.871-1.516-9.735-3.05c-.6-.188-1.358-.425-.918-1.2.172-.3,1.081-.411,1.556-.271,3.849,1.13,7.672,2.346,11.508,3.519C219.11,433.264,220.087,433.485,219.578,435.118Z" transform="translate(-6.882 -55.116)" fill="#fff"/>
    <path id="Tracé_37887" data-name="Tracé 37887" d="M219.466,452.089a2.514,2.514,0,0,1-2.752.831c-3.535-1.088-7.072-2.173-10.585-3.333-.42-.139-1.026-.809-.962-1.1.18-.813.926-.588,1.514-.4q5.785,1.816,11.564,3.651C218.6,451.843,218.963,451.942,219.466,452.089Z" transform="translate(-6.989 -65.102)" fill="#fff"/>
  </g>
</svg>
