<svg id="Groupe_11203" data-name="Groupe 11203" xmlns="http://www.w3.org/2000/svg" width="48.51" height="69.656" viewBox="0 0 48.51 69.656">
  <g id="Groupe_11202" data-name="Groupe 11202" transform="translate(0 0)">
    <g id="Groupe_11201" data-name="Groupe 11201">
      <path id="Tracé_37871" data-name="Tracé 37871" d="M41.5,0a1.53,1.53,0,0,1,.775,1.824c-.7,4.292-1.376,8.576-2.064,12.869q-1.275,7.941-2.542,15.9a2.478,2.478,0,0,0,0,.434c1.439-.289,2.815-.557,4.187-.823L52.893,28c.851-.167,1.364-.011,1.664.445a1.244,1.244,0,0,1-.262,1.59q-3.3,4.008-6.6,8.022Q43,43.747,38.325,49.437q-3.247,3.938-6.48,7.886-3.584,4.338-7.169,8.688c-.738.89-1.463,1.8-2.227,2.681a12.2,12.2,0,0,1-1.089.968h-.748c-.926-.478-.913-1.179-.764-2.013.661-3.56,1.249-7.141,1.874-10.7q1.369-7.846,2.767-15.7c.05-.3.1-.612.175-1.012-.823.122-1.552.223-2.29.345Q15.281,41.75,8.188,42.929a2.455,2.455,0,0,1-.313.045,1.358,1.358,0,0,1-1.426-.465,1.1,1.1,0,0,1,.113-1.457c1.7-2.061,3.415-4.115,5.1-6.174q2.927-3.553,5.855-7.13c1.939-2.358,3.9-4.705,5.842-7.064q3.171-3.855,6.342-7.7Q34.1,7.664,38.5,2.342c.338-.4.638-.823.989-1.213s.748-.723,1.126-1.09A7.929,7.929,0,0,1,41.5,0" transform="translate(-6.226 -0.003)" fill="#fff"/>
    </g>
  </g>
</svg>
