<svg xmlns="http://www.w3.org/2000/svg" width="77.88" height="74.9" viewBox="0 0 77.88 74.9">
  <g id="Groupe_11205" data-name="Groupe 11205" transform="translate(194.899 -98.826)">
    <path id="Tracé_37874" data-name="Tracé 37874" d="M-156.009,98.835q15.347,0,30.694-.009a8.215,8.215,0,0,1,5.006,1.474,7.617,7.617,0,0,1,3.282,6.52c.014,4.936,0,9.872,0,14.808q0,12.789,0,25.578a7.775,7.775,0,0,1-7.662,7.726c-7.823.022-15.646,0-23.469,0-5.145,0-10.291-.018-15.436.017a8.351,8.351,0,0,0-6.092,2.529c-2.041,2.079-4.013,4.226-6.017,6.341q-3.052,3.221-6.109,6.437c-.905.954-1.806,1.912-2.714,2.863a1.657,1.657,0,0,1-1.872.484,1.635,1.635,0,0,1-1.109-1.661c.023-2.632.031-5.264.041-7.9.011-2.885.011-5.77.032-8.655,0-.338-.08-.459-.437-.492a7.744,7.744,0,0,1-6.967-6.947,30.3,30.3,0,0,1-.051-3.092q-.009-18.914-.013-37.828a8.222,8.222,0,0,1,2.1-5.745,7.655,7.655,0,0,1,2.612-1.814,8.949,8.949,0,0,1,3.751-.646Q-171.221,98.843-156.009,98.835Zm.044,45.7A17,17,0,0,0-138.925,127.7a17.034,17.034,0,0,0-16.679-17.22,17.042,17.042,0,0,0-17.384,17.159A17.005,17.005,0,0,0-155.964,144.531Z" transform="translate(0 0)" fill="#fff"/>
    <path id="Tracé_37876" data-name="Tracé 37876" d="M188.52,356.129a11.956,11.956,0,0,1-8.047,11.334,11.837,11.837,0,0,1-9.952-.868c-.292-.159-.269-.256-.053-.471q2.977-2.948,5.936-5.915c1.081-1.084,2.133-2.2,3.228-3.268.806-.787,1.578-1.607,2.408-2.37.711-.653,1.359-1.374,2.035-2.064.777-.792,1.561-1.577,2.329-2.377.259-.271.416-.237.594.078a12.037,12.037,0,0,1,1.412,4.178A11.674,11.674,0,0,1,188.52,356.129Z" transform="translate(-332.425 -228.583)" fill="#fff"/>
    <path id="Tracé_37877" data-name="Tracé 37877" d="M104.7,295.984a12.051,12.051,0,0,1,17.929-10.576c.312.17.374.283.087.569q-7.986,7.961-15.948,15.945c-.291.292-.373.213-.554-.111A11.854,11.854,0,0,1,104.7,295.984Z" transform="translate(-272.71 -168.438)" fill="#fff"/>
  </g>
</svg>
