<svg xmlns="http://www.w3.org/2000/svg" width="46.672" height="72.061" viewBox="0 0 46.672 72.061">
  <g id="Groupe_11204" data-name="Groupe 11204" transform="translate(-177.613 -220.205)">
    <path id="Tracé_37872" data-name="Tracé 37872" d="M189.71,272.766q.81-1.518,1.62-3.037,2.119-3.989,4.236-7.979,2.673-5.02,5.356-10.034c.654-1.222,1.25-2.485,2.005-3.643a4.862,4.862,0,0,1,8.094,5.381c-1.131,2.1-2.245,4.214-3.367,6.321q-.533,1-1.068,2c-.055.1-.1.208-.184.372a4.956,4.956,0,0,1,6.3,5.406,5.066,5.066,0,0,1,5.792,6.787c.56.027,1.133.012,1.692.09a4.949,4.949,0,0,1,4.073,4.312,5.382,5.382,0,0,1-.579,2.951q-1.547,3.168-3.012,6.376c-.857,1.876-1.645,3.783-2.5,5.662a40.3,40.3,0,0,1-4.768,8.317,24.736,24.736,0,0,1-4.309,4.381c-1.354,1.049-2.755,2.042-4.18,2.992a4.519,4.519,0,0,0-1.213,1.57c-.25.394-.451.819-.685,1.225a2.034,2.034,0,0,1-2.871.821q-2.542-1.354-5.085-2.705-3.38-1.8-6.76-3.6-3.572-1.9-7.142-3.812a2.017,2.017,0,0,1-.811-2.969c.158-.255.277-.537.457-.774a1.909,1.909,0,0,0,.091-2.186,36.617,36.617,0,0,1-2.765-7.589,18.7,18.7,0,0,1-.406-6.441c.251-2.242.584-4.474.848-6.714a45.137,45.137,0,0,0,.249-7.41,6.974,6.974,0,0,1,.148-2.459,5,5,0,0,1,7.386-2.794,5.568,5.568,0,0,1,1.912,2.1c1.19,2.092,1.3,4.386,1.355,6.7,0,.119,0,.238,0,.357Z" transform="translate(0 -21.06)" fill="#fff"/>
    <path id="Tracé_37873" data-name="Tracé 37873" d="M280.482,223.368a1.523,1.523,0,0,0-.109-.263c-.41-.589-.83-1.171-1.235-1.763a.7.7,0,0,1,.144-.966.687.687,0,0,1,.973.066,3.854,3.854,0,0,1,.365.489c.7,1.045,1.4,2.095,2.107,3.139a.721.721,0,0,1-.2,1.134q-1.747,1.177-3.5,2.35a.762.762,0,0,1-1.11-.142.726.726,0,0,1,.3-1.043c.711-.483,1.424-.963,2.21-1.493-.781-.2-1.482-.4-2.188-.572a82.389,82.389,0,0,0-8.754-1.709,47.311,47.311,0,0,0-10.345-.373,33.546,33.546,0,0,0-8.331,1.724.752.752,0,0,1-.993-.239.726.726,0,0,1,.5-1.112c1.25-.376,2.5-.777,3.767-1.065a40.013,40.013,0,0,1,11.566-.776,79.076,79.076,0,0,1,14.338,2.5C280.133,223.289,280.282,223.321,280.482,223.368Z" transform="translate(-58.88 0)" fill="#fff"/>
  </g>
</svg>
